<svg xmlns="http://www.w3.org/2000/svg" xmlns:xlink="http://www.w3.org/1999/xlink" width="500" zoomAndPan="magnify" viewBox="0 0 375 374.999991" height="500" preserveAspectRatio="xMidYMid meet" version="1.2"><defs><clipPath id="189c4bf3d4"><path d="M 87.175781 87.175781 L 288 87.175781 L 288 288 L 87.175781 288 Z M 87.175781 87.175781 "/></clipPath></defs><g id="44730d4e90"><g clip-rule="nonzero" clip-path="url(#189c4bf3d4)"><path style=" stroke:none;fill-rule:nonzero;fill:#ffffff;fill-opacity:1;" d="M 187.5 87.175781 C 131.988281 87.175781 87.175781 131.988281 87.175781 187.5 C 87.175781 243.011719 131.988281 287.824219 187.5 287.824219 C 243.011719 287.824219 287.824219 243.011719 287.824219 187.5 C 287.824219 131.988281 243.011719 87.175781 187.5 87.175781 Z M 187.5 278.90625 C 137.113281 278.90625 96.09375 237.882812 96.09375 187.5 C 96.09375 137.113281 137.113281 96.09375 187.5 96.09375 C 237.882812 96.09375 278.90625 137.113281 278.90625 187.5 C 278.90625 237.882812 237.882812 278.90625 187.5 278.90625 Z M 187.5 278.90625 "/></g><g style="fill:#ffffff;fill-opacity:1;"><g transform="translate(129.553604, 223.124985)"><path style="stroke:none" d="M 115.171875 -1.21875 L 117.109375 -1.21875 L 117.109375 0 L 80.625 0 L 80.625 -1.09375 L 82.453125 -1.09375 C 83.828125 -1.175781 85 -1.742188 85.96875 -2.796875 C 86.945312 -3.847656 87.351562 -5.023438 87.1875 -6.328125 L 82.453125 -50.46875 L 59.59375 -11.0625 C 56.59375 -6.039062 55.050781 -1.539062 54.96875 2.4375 L 53.75 2.4375 L 22.5 -50.109375 L 17.75 -6.328125 C 17.59375 -5.023438 18 -3.828125 18.96875 -2.734375 C 19.945312 -1.640625 21.125 -1.09375 22.5 -1.09375 L 24.328125 -1.09375 L 24.328125 0 L -1.09375 0 L -1.09375 -1.21875 L 0.84375 -1.21875 C 3.113281 -1.21875 5.082031 -1.90625 6.75 -3.28125 C 8.414062 -4.65625 9.410156 -6.519531 9.734375 -8.875 L 19.828125 -86.828125 L 20.921875 -86.828125 L 58.609375 -24.8125 L 94.859375 -86.828125 L 95.953125 -86.828125 L 106.28125 -8.875 C 106.6875 -6.519531 107.71875 -4.65625 109.375 -3.28125 C 111.039062 -1.90625 112.972656 -1.21875 115.171875 -1.21875 Z M 115.171875 -1.21875 "/></g></g></g></svg>