<svg xmlns="http://www.w3.org/2000/svg" xmlns:xlink="http://www.w3.org/1999/xlink" width="500" zoomAndPan="magnify" viewBox="0 0 375 374.999991" height="500" preserveAspectRatio="xMidYMid meet" version="1.2"><defs><filter x="0%" y="0%" width="100%" filterUnits="objectBoundingBox" id="ae8f0d836b" height="100%"><feColorMatrix values="0 0 0 0 1 0 0 0 0 1 0 0 0 0 1 0 0 0 1 0" type="matrix" in="SourceGraphic"/></filter><clipPath id="82a830bf28"><path d="M 0.859375 8 L 98 8 L 98 106 L 0.859375 106 Z M 0.859375 8 "/></clipPath><clipPath id="73d298f12d"><path d="M 50 0.371094 L 137 0.371094 L 137 70 L 50 70 Z M 50 0.371094 "/></clipPath><clipPath id="004959050e"><path d="M 80 46 L 166 46 L 166 115.871094 L 80 115.871094 Z M 80 46 "/></clipPath><clipPath id="86cc88938c"><path d="M 119 10 L 216.109375 10 L 216.109375 108 L 119 108 Z M 119 10 "/></clipPath><clipPath id="be901faad7"><rect x="0" width="217" y="0" height="117"/></clipPath></defs><g id="533e7ab32d"><g mask="url(#888d73dbad)" transform="matrix(1,0,0,1,79,129)"><g clip-path="url(#be901faad7)"><g clip-rule="nonzero" clip-path="url(#82a830bf28)"><path style=" stroke:none;fill-rule:nonzero;fill:#89ceb7;fill-opacity:1;" d="M 80.328125 75.289062 L 83.355469 72.273438 L 86.382812 69.246094 L 97.808594 57.761719 L 86.570312 46.523438 L 80.527344 52.566406 L 85.722656 57.761719 L 80.339844 63.203125 L 68.253906 75.289062 L 65.226562 78.246094 L 62.210938 81.273438 L 49.855469 93.6875 L 12.945312 56.703125 L 48.804688 20.84375 L 62.398438 34.4375 L 68.441406 28.394531 L 48.804688 8.757812 L 0.859375 56.703125 L 49.855469 105.707031 L 68.253906 87.316406 L 71.269531 84.289062 L 74.296875 81.332031 L 80.339844 75.289062 Z M 80.328125 75.289062 "/></g><g clip-rule="nonzero" clip-path="url(#73d298f12d)"><path style=" stroke:none;fill-rule:nonzero;fill:#89ceb7;fill-opacity:1;" d="M 62.398438 46.523438 L 50.914062 57.949219 L 62.210938 69.246094 L 68.253906 63.203125 L 63 57.949219 L 68.441406 52.566406 L 80.527344 40.480469 L 83.554688 37.464844 L 86.511719 34.4375 L 108.445312 12.503906 L 130.582031 34.636719 L 136.625 28.59375 L 108.445312 0.417969 L 80.46875 28.394531 L 77.511719 31.421875 L 74.484375 34.4375 L 65.425781 43.507812 Z M 62.398438 46.523438 "/></g><g clip-rule="nonzero" clip-path="url(#004959050e)"><path style=" stroke:none;fill-rule:nonzero;fill:#89ceb7;fill-opacity:1;" d="M 165.980469 57.949219 L 154.683594 46.652344 L 148.640625 52.695312 L 153.894531 57.949219 L 148.507812 63.34375 L 145.492188 66.359375 L 142.464844 69.378906 L 136.421875 75.421875 L 133.40625 78.445312 L 130.378906 81.464844 L 108.445312 103.40625 L 86.382812 81.332031 L 80.339844 87.375 L 108.445312 115.492188 L 139.449219 84.488281 L 142.464844 81.464844 Z M 165.980469 57.949219 "/></g><g clip-rule="nonzero" clip-path="url(#86cc88938c)"><path style=" stroke:none;fill-rule:nonzero;fill:#89ceb7;fill-opacity:1;" d="M 167.027344 10.207031 L 148.710938 28.59375 L 145.683594 31.613281 L 142.667969 34.636719 L 119.152344 58.152344 L 130.378906 69.378906 L 136.421875 63.34375 L 131.167969 58.152344 L 136.625 52.765625 L 139.640625 49.742188 L 142.667969 46.722656 L 148.710938 40.679688 L 151.726562 37.65625 L 154.753906 34.636719 L 167.027344 22.292969 L 204.015625 59.199219 L 168.148438 95.066406 L 154.550781 81.464844 L 148.507812 87.507812 L 168.148438 107.144531 L 216.101562 59.199219 Z M 167.027344 10.207031 "/></g></g><mask id="888d73dbad"><g filter="url(#ae8f0d836b)"><rect x="0" width="375" y="0" height="374.999991" style="fill:#000000;fill-opacity:0.29;stroke:none;"/></g></mask></g><g style="fill:#ffffff;fill-opacity:1;"><g transform="translate(45.557513, 210.534464)"><path style="stroke:none" d="M 3.625 0 L 3.625 -1.078125 C 4.90625 -1.484375 5.738281 -2.34375 6.125 -3.65625 C 6.507812 -4.96875 6.703125 -7.007812 6.703125 -9.78125 L 6.703125 -44.125 C 6.703125 -46.894531 6.507812 -48.9375 6.125 -50.25 C 5.738281 -51.5625 4.90625 -52.421875 3.625 -52.828125 L 3.625 -53.90625 L 40.59375 -53.90625 L 41.4375 -43.046875 L 40.4375 -42.828125 C 38.894531 -46.617188 36.828125 -49.207031 34.234375 -50.59375 C 31.640625 -51.976562 28.1875 -52.671875 23.875 -52.671875 L 14.859375 -52.671875 L 14.859375 -29.578125 L 22.25 -29.578125 C 25.382812 -29.578125 27.847656 -29.78125 29.640625 -30.1875 C 31.441406 -30.601562 32.78125 -31.242188 33.65625 -32.109375 C 34.53125 -32.984375 35.171875 -34.085938 35.578125 -35.421875 L 36.65625 -35.421875 L 36.65625 -22.484375 L 35.578125 -22.484375 C 35.171875 -23.816406 34.53125 -24.921875 33.65625 -25.796875 C 32.78125 -26.671875 31.441406 -27.3125 29.640625 -27.71875 C 27.847656 -28.132812 25.382812 -28.34375 22.25 -28.34375 L 14.859375 -28.34375 L 14.859375 -5.078125 C 14.859375 -2.515625 16.144531 -1.234375 18.71875 -1.234375 L 26.109375 -1.234375 C 30.015625 -1.234375 33.300781 -1.953125 35.96875 -3.390625 C 38.632812 -4.828125 40.6875 -7.492188 42.125 -11.390625 L 43.125 -11.25 L 42.59375 0 Z M 3.625 0 "/></g></g><g style="fill:#ffffff;fill-opacity:1;"><g transform="translate(88.453236, 210.534464)"><path style="stroke:none" d="M 2.3125 0 L 2.3125 -1.078125 C 3.59375 -1.484375 4.425781 -2.34375 4.8125 -3.65625 C 5.195312 -4.96875 5.390625 -7.007812 5.390625 -9.78125 L 5.390625 -50.59375 C 5.390625 -52.851562 5.117188 -54.34375 4.578125 -55.0625 C 4.046875 -55.78125 3.289062 -56.347656 2.3125 -56.765625 L 2.3125 -57.84375 L 12.46875 -62.3125 L 13.25 -61.6875 L 13.25 -9.78125 C 13.25 -7.007812 13.441406 -4.96875 13.828125 -3.65625 C 14.210938 -2.34375 15.046875 -1.484375 16.328125 -1.078125 L 16.328125 0 Z M 2.3125 0 "/></g></g><g style="fill:#ffffff;fill-opacity:1;"><g transform="translate(104.47164, 210.534464)"><path style="stroke:none" d="M 20.640625 0.765625 C 18.484375 0.765625 16.335938 0.378906 14.203125 -0.390625 C 12.078125 -1.160156 10.113281 -2.3125 8.3125 -3.84375 C 6.519531 -5.382812 5.082031 -7.3125 4 -9.625 C 2.925781 -11.9375 2.390625 -14.660156 2.390625 -17.796875 C 2.390625 -21.078125 2.96875 -24.023438 4.125 -26.640625 C 5.28125 -29.265625 6.832031 -31.5 8.78125 -33.34375 C 10.726562 -35.195312 12.894531 -36.609375 15.28125 -37.578125 C 17.675781 -38.554688 20.128906 -39.046875 22.640625 -39.046875 C 26.128906 -39.046875 29.054688 -38.351562 31.421875 -36.96875 C 33.785156 -35.582031 35.566406 -33.835938 36.765625 -31.734375 C 37.972656 -29.628906 38.578125 -27.445312 38.578125 -25.1875 L 9.390625 -25.1875 C 9.335938 -24.769531 9.296875 -24.351562 9.265625 -23.9375 C 9.242188 -23.53125 9.234375 -23.125 9.234375 -22.71875 C 9.234375 -19.382812 9.890625 -16.40625 11.203125 -13.78125 C 12.515625 -11.164062 14.363281 -9.125 16.75 -7.65625 C 19.132812 -6.195312 21.945312 -5.46875 25.1875 -5.46875 C 28.0625 -5.46875 30.601562 -6.03125 32.8125 -7.15625 C 35.019531 -8.289062 36.921875 -9.753906 38.515625 -11.546875 L 39.203125 -10.78125 C 38.015625 -8.988281 36.546875 -7.203125 34.796875 -5.421875 C 33.054688 -3.648438 31.003906 -2.175781 28.640625 -1 C 26.285156 0.175781 23.617188 0.765625 20.640625 0.765625 Z M 9.46875 -26.265625 L 30.8125 -26.265625 C 30.5 -28.367188 29.84375 -30.28125 28.84375 -32 C 27.84375 -33.71875 26.609375 -35.085938 25.140625 -36.109375 C 23.679688 -37.140625 22.050781 -37.65625 20.25 -37.65625 C 18.09375 -37.707031 16.269531 -37.191406 14.78125 -36.109375 C 13.289062 -35.035156 12.109375 -33.625 11.234375 -31.875 C 10.367188 -30.132812 9.78125 -28.265625 9.46875 -26.265625 Z M 9.46875 -26.265625 "/></g></g><g style="fill:#ffffff;fill-opacity:1;"><g transform="translate(142.669614, 210.534464)"><path style="stroke:none" d="M 4.546875 -29.5 C 3.460938 -32.0625 2.5 -33.929688 1.65625 -35.109375 C 0.8125 -36.296875 -0.046875 -37.066406 -0.921875 -37.421875 L -0.921875 -38.515625 L 12.25 -38.515625 L 12.25 -37.421875 C 10.957031 -37.015625 10.476562 -36.234375 10.8125 -35.078125 C 11.15625 -33.921875 11.890625 -32.0625 13.015625 -29.5 L 22.1875 -7.859375 L 30.5 -29.34375 C 31.476562 -31.957031 31.847656 -33.878906 31.609375 -35.109375 C 31.378906 -36.347656 30.597656 -37.117188 29.265625 -37.421875 L 29.265625 -38.515625 L 37.5 -38.515625 L 37.5 -37.421875 C 36.375 -37.066406 35.382812 -36.285156 34.53125 -35.078125 C 33.6875 -33.867188 32.753906 -31.957031 31.734375 -29.34375 L 20.484375 0 L 16.859375 0 Z M 4.546875 -29.5 "/></g></g><g style="fill:#ffffff;fill-opacity:1;"><g transform="translate(176.554893, 210.534464)"><path style="stroke:none" d="M 31.578125 0 C 29.523438 0 28.5 -1.023438 28.5 -3.078125 L 28.5 -15.78125 C 27.78125 -12.8125 26.703125 -10.066406 25.265625 -7.546875 C 23.828125 -5.035156 22.054688 -3.019531 19.953125 -1.5 C 17.847656 0.0078125 15.457031 0.765625 12.78125 0.765625 C 9.957031 0.765625 7.503906 -0.101562 5.421875 -1.84375 C 3.347656 -3.59375 2.3125 -6.082031 2.3125 -9.3125 C 2.3125 -11.988281 3.117188 -14.160156 4.734375 -15.828125 C 6.347656 -17.492188 8.488281 -18.890625 11.15625 -20.015625 C 13.832031 -21.148438 16.765625 -22.15625 19.953125 -23.03125 L 28.5 -25.484375 C 28.445312 -29.285156 27.484375 -31.992188 25.609375 -33.609375 C 23.734375 -35.234375 21.359375 -36.046875 18.484375 -36.046875 C 16.328125 -36.046875 14.195312 -35.546875 12.09375 -34.546875 C 9.988281 -33.546875 7.957031 -31.863281 6 -29.5 L 5.234375 -30.1875 C 7.390625 -32.851562 9.929688 -34.992188 12.859375 -36.609375 C 15.785156 -38.234375 18.992188 -39.046875 22.484375 -39.046875 C 27.160156 -39.046875 30.613281 -37.828125 32.84375 -35.390625 C 35.082031 -32.953125 36.203125 -29.367188 36.203125 -24.640625 L 36.203125 -9.78125 C 36.203125 -7.007812 36.394531 -4.96875 36.78125 -3.65625 C 37.164062 -2.34375 38 -1.484375 39.28125 -1.078125 L 39.28125 0 Z M 9.46875 -12.015625 C 9.46875 -9.492188 10.222656 -7.671875 11.734375 -6.546875 C 13.253906 -5.421875 14.890625 -4.859375 16.640625 -4.859375 C 18.535156 -4.859375 20.210938 -5.429688 21.671875 -6.578125 C 23.140625 -7.734375 24.375 -9.222656 25.375 -11.046875 C 26.375 -12.867188 27.144531 -14.78125 27.6875 -16.78125 C 28.226562 -18.789062 28.5 -20.664062 28.5 -22.40625 L 28.5 -24.40625 L 20.25 -22.03125 C 19.332031 -21.769531 18.269531 -21.394531 17.0625 -20.90625 C 15.851562 -20.414062 14.671875 -19.785156 13.515625 -19.015625 C 12.359375 -18.253906 11.394531 -17.296875 10.625 -16.140625 C 9.851562 -14.984375 9.46875 -13.609375 9.46875 -12.015625 Z M 9.46875 -12.015625 "/></g></g><g style="fill:#ffffff;fill-opacity:1;"><g transform="translate(214.444811, 210.534464)"><path style="stroke:none" d="M 14.484375 0.765625 C 11.859375 0.765625 9.863281 -0.128906 8.5 -1.921875 C 7.144531 -3.722656 6.46875 -6.703125 6.46875 -10.859375 L 6.46875 -37.28125 L 1.546875 -37.28125 L 1.546875 -38.515625 L 13.09375 -48.671875 L 14.328125 -48.671875 L 14.328125 -38.515625 L 26.265625 -38.515625 L 25.953125 -37.28125 L 14.328125 -37.28125 L 14.328125 -10.78125 C 14.328125 -8.414062 14.757812 -6.679688 15.625 -5.578125 C 16.5 -4.472656 17.785156 -3.921875 19.484375 -3.921875 C 20.359375 -3.921875 21.394531 -4.164062 22.59375 -4.65625 C 23.800781 -5.144531 25.050781 -6.1875 26.34375 -7.78125 L 27.109375 -7.015625 C 25.054688 -4.648438 23.015625 -2.757812 20.984375 -1.34375 C 18.953125 0.0625 16.785156 0.765625 14.484375 0.765625 Z M 14.484375 0.765625 "/></g></g><g style="fill:#ffffff;fill-opacity:1;"><g transform="translate(238.934575, 210.534464)"><path style="stroke:none" d="M 20.640625 0.765625 C 18.484375 0.765625 16.335938 0.378906 14.203125 -0.390625 C 12.078125 -1.160156 10.113281 -2.3125 8.3125 -3.84375 C 6.519531 -5.382812 5.082031 -7.3125 4 -9.625 C 2.925781 -11.9375 2.390625 -14.660156 2.390625 -17.796875 C 2.390625 -21.078125 2.96875 -24.023438 4.125 -26.640625 C 5.28125 -29.265625 6.832031 -31.5 8.78125 -33.34375 C 10.726562 -35.195312 12.894531 -36.609375 15.28125 -37.578125 C 17.675781 -38.554688 20.128906 -39.046875 22.640625 -39.046875 C 26.128906 -39.046875 29.054688 -38.351562 31.421875 -36.96875 C 33.785156 -35.582031 35.566406 -33.835938 36.765625 -31.734375 C 37.972656 -29.628906 38.578125 -27.445312 38.578125 -25.1875 L 9.390625 -25.1875 C 9.335938 -24.769531 9.296875 -24.351562 9.265625 -23.9375 C 9.242188 -23.53125 9.234375 -23.125 9.234375 -22.71875 C 9.234375 -19.382812 9.890625 -16.40625 11.203125 -13.78125 C 12.515625 -11.164062 14.363281 -9.125 16.75 -7.65625 C 19.132812 -6.195312 21.945312 -5.46875 25.1875 -5.46875 C 28.0625 -5.46875 30.601562 -6.03125 32.8125 -7.15625 C 35.019531 -8.289062 36.921875 -9.753906 38.515625 -11.546875 L 39.203125 -10.78125 C 38.015625 -8.988281 36.546875 -7.203125 34.796875 -5.421875 C 33.054688 -3.648438 31.003906 -2.175781 28.640625 -1 C 26.285156 0.175781 23.617188 0.765625 20.640625 0.765625 Z M 9.46875 -26.265625 L 30.8125 -26.265625 C 30.5 -28.367188 29.84375 -30.28125 28.84375 -32 C 27.84375 -33.71875 26.609375 -35.085938 25.140625 -36.109375 C 23.679688 -37.140625 22.050781 -37.65625 20.25 -37.65625 C 18.09375 -37.707031 16.269531 -37.191406 14.78125 -36.109375 C 13.289062 -35.035156 12.109375 -33.625 11.234375 -31.875 C 10.367188 -30.132812 9.78125 -28.265625 9.46875 -26.265625 Z M 9.46875 -26.265625 "/></g></g><g style="fill:#ffffff;fill-opacity:1;"><g transform="translate(277.13255, 210.534464)"><path style="stroke:none" d="M 18.796875 0.921875 C 15.554688 0.867188 12.703125 -0.0507812 10.234375 -1.84375 C 7.773438 -3.644531 5.851562 -5.957031 4.46875 -8.78125 C 3.082031 -11.601562 2.390625 -14.609375 2.390625 -17.796875 C 2.390625 -21.742188 3.25 -25.304688 4.96875 -28.484375 C 6.6875 -31.671875 9.148438 -34.210938 12.359375 -36.109375 C 15.566406 -38.015625 19.40625 -38.96875 23.875 -38.96875 C 25.519531 -38.96875 27.019531 -38.785156 28.375 -38.421875 C 29.738281 -38.066406 30.984375 -37.609375 32.109375 -37.046875 L 32.109375 -50.59375 C 32.109375 -52.851562 31.835938 -54.34375 31.296875 -55.0625 C 30.765625 -55.78125 30.007812 -56.347656 29.03125 -56.765625 L 29.03125 -57.84375 L 39.203125 -62.3125 L 39.96875 -61.6875 L 39.96875 -9.78125 C 39.96875 -7.007812 40.160156 -4.96875 40.546875 -3.65625 C 40.929688 -2.34375 41.765625 -1.484375 43.046875 -1.078125 L 43.046875 0 L 35.203125 0 C 33.140625 0 32.109375 -1.023438 32.109375 -3.078125 L 32.109375 -6.3125 C 31.140625 -5.1875 29.984375 -4.054688 28.640625 -2.921875 C 27.304688 -1.796875 25.816406 -0.859375 24.171875 -0.109375 C 22.535156 0.628906 20.742188 0.972656 18.796875 0.921875 Z M 9.9375 -24.03125 C 9.9375 -22.175781 10.128906 -20.09375 10.515625 -17.78125 C 10.898438 -15.476562 11.59375 -13.257812 12.59375 -11.125 C 13.59375 -9 14.976562 -7.226562 16.75 -5.8125 C 18.519531 -4.40625 20.789062 -3.703125 23.5625 -3.703125 C 25.257812 -3.703125 26.828125 -4.109375 28.265625 -4.921875 C 29.703125 -5.742188 30.984375 -6.75 32.109375 -7.9375 L 32.109375 -24.953125 C 32.109375 -26.847656 31.59375 -28.742188 30.5625 -30.640625 C 29.539062 -32.546875 28.171875 -34.140625 26.453125 -35.421875 C 24.734375 -36.710938 22.796875 -37.359375 20.640625 -37.359375 C 17.816406 -37.359375 15.632812 -36.660156 14.09375 -35.265625 C 12.550781 -33.878906 11.472656 -32.171875 10.859375 -30.140625 C 10.242188 -28.117188 9.9375 -26.082031 9.9375 -24.03125 Z M 9.9375 -24.03125 "/></g></g><g style="fill:#ffffff;fill-opacity:1;"><g transform="translate(91.714249, 241.881697)"><path style="stroke:none" d="M 6.75 -17 C 9.625 -17 11.84375 -16.25 13.40625 -14.75 C 14.96875 -13.25 15.75 -11.160156 15.75 -8.484375 C 15.75 -5.796875 14.96875 -3.707031 13.40625 -2.21875 C 11.84375 -0.738281 9.625 0 6.75 0 L 1.984375 0 L 1.984375 -17 Z M 6.75 -0.921875 C 9.320312 -0.921875 11.273438 -1.585938 12.609375 -2.921875 C 13.953125 -4.253906 14.625 -6.109375 14.625 -8.484375 C 14.625 -10.867188 13.953125 -12.726562 12.609375 -14.0625 C 11.273438 -15.40625 9.320312 -16.078125 6.75 -16.078125 L 3.078125 -16.078125 L 3.078125 -0.921875 Z M 6.75 -0.921875 "/></g></g><g style="fill:#ffffff;fill-opacity:1;"><g transform="translate(107.846549, 241.881697)"><path style="stroke:none" d="M 13.828125 -7.453125 C 13.828125 -6.878906 13.8125 -6.445312 13.78125 -6.15625 L 2.421875 -6.15625 C 2.453125 -4.976562 2.707031 -3.984375 3.1875 -3.171875 C 3.675781 -2.367188 4.316406 -1.765625 5.109375 -1.359375 C 5.898438 -0.953125 6.765625 -0.75 7.703125 -0.75 C 8.992188 -0.75 10.070312 -1.066406 10.9375 -1.703125 C 11.8125 -2.347656 12.363281 -3.21875 12.59375 -4.3125 L 13.734375 -4.3125 C 13.472656 -2.96875 12.804688 -1.878906 11.734375 -1.046875 C 10.671875 -0.222656 9.328125 0.1875 7.703125 0.1875 C 6.472656 0.1875 5.375 -0.0820312 4.40625 -0.625 C 3.4375 -1.175781 2.675781 -1.960938 2.125 -2.984375 C 1.582031 -4.015625 1.3125 -5.21875 1.3125 -6.59375 C 1.3125 -7.957031 1.582031 -9.148438 2.125 -10.171875 C 2.664062 -11.191406 3.421875 -11.972656 4.390625 -12.515625 C 5.359375 -13.054688 6.460938 -13.328125 7.703125 -13.328125 C 8.960938 -13.328125 10.054688 -13.054688 10.984375 -12.515625 C 11.910156 -11.972656 12.613281 -11.253906 13.09375 -10.359375 C 13.582031 -9.460938 13.828125 -8.492188 13.828125 -7.453125 Z M 12.734375 -7.046875 C 12.785156 -8.210938 12.582031 -9.195312 12.125 -10 C 11.664062 -10.8125 11.039062 -11.414062 10.25 -11.8125 C 9.457031 -12.207031 8.597656 -12.40625 7.671875 -12.40625 C 6.753906 -12.40625 5.90625 -12.207031 5.125 -11.8125 C 4.34375 -11.414062 3.703125 -10.8125 3.203125 -10 C 2.710938 -9.195312 2.453125 -8.210938 2.421875 -7.046875 Z M 12.734375 -7.046875 "/></g></g><g style="fill:#ffffff;fill-opacity:1;"><g transform="translate(122.065234, 241.881697)"><path style="stroke:none" d="M 6.375 0.1875 C 4.90625 0.1875 3.703125 -0.132812 2.765625 -0.78125 C 1.835938 -1.425781 1.320312 -2.34375 1.21875 -3.53125 L 2.328125 -3.53125 C 2.410156 -2.675781 2.800781 -2 3.5 -1.5 C 4.195312 -1 5.15625 -0.75 6.375 -0.75 C 7.375 -0.75 8.164062 -1.003906 8.75 -1.515625 C 9.34375 -2.023438 9.640625 -2.648438 9.640625 -3.390625 C 9.640625 -3.910156 9.476562 -4.332031 9.15625 -4.65625 C 8.84375 -4.988281 8.453125 -5.242188 7.984375 -5.421875 C 7.523438 -5.597656 6.890625 -5.789062 6.078125 -6 C 5.109375 -6.257812 4.320312 -6.515625 3.71875 -6.765625 C 3.125 -7.015625 2.617188 -7.390625 2.203125 -7.890625 C 1.785156 -8.390625 1.578125 -9.0625 1.578125 -9.90625 C 1.578125 -10.519531 1.757812 -11.085938 2.125 -11.609375 C 2.5 -12.140625 3.015625 -12.554688 3.671875 -12.859375 C 4.335938 -13.171875 5.09375 -13.328125 5.9375 -13.328125 C 7.3125 -13.328125 8.421875 -12.984375 9.265625 -12.296875 C 10.109375 -11.609375 10.5625 -10.660156 10.625 -9.453125 L 9.546875 -9.453125 C 9.492188 -10.316406 9.148438 -11.023438 8.515625 -11.578125 C 7.890625 -12.128906 7.019531 -12.40625 5.90625 -12.40625 C 4.96875 -12.40625 4.191406 -12.160156 3.578125 -11.671875 C 2.972656 -11.191406 2.671875 -10.601562 2.671875 -9.90625 C 2.671875 -9.289062 2.84375 -8.789062 3.1875 -8.40625 C 3.53125 -8.03125 3.957031 -7.738281 4.46875 -7.53125 C 4.976562 -7.332031 5.648438 -7.125 6.484375 -6.90625 C 7.410156 -6.664062 8.148438 -6.425781 8.703125 -6.1875 C 9.265625 -5.957031 9.738281 -5.617188 10.125 -5.171875 C 10.507812 -4.722656 10.703125 -4.128906 10.703125 -3.390625 C 10.703125 -2.710938 10.515625 -2.097656 10.140625 -1.546875 C 9.773438 -1.003906 9.257812 -0.578125 8.59375 -0.265625 C 7.9375 0.0351562 7.195312 0.1875 6.375 0.1875 Z M 6.375 0.1875 "/></g></g><g style="fill:#ffffff;fill-opacity:1;"><g transform="translate(133.183373, 241.881697)"><path style="stroke:none" d="M 2.546875 -16.078125 C 2.285156 -16.078125 2.066406 -16.160156 1.890625 -16.328125 C 1.710938 -16.503906 1.625 -16.738281 1.625 -17.03125 C 1.625 -17.300781 1.710938 -17.523438 1.890625 -17.703125 C 2.066406 -17.878906 2.285156 -17.96875 2.546875 -17.96875 C 2.804688 -17.96875 3.023438 -17.878906 3.203125 -17.703125 C 3.378906 -17.523438 3.46875 -17.300781 3.46875 -17.03125 C 3.46875 -16.738281 3.378906 -16.503906 3.203125 -16.328125 C 3.023438 -16.160156 2.804688 -16.078125 2.546875 -16.078125 Z M 3.078125 -13.15625 L 3.078125 0 L 1.984375 0 L 1.984375 -13.15625 Z M 3.078125 -13.15625 "/></g></g><g style="fill:#ffffff;fill-opacity:1;"><g transform="translate(137.349497, 241.881697)"><path style="stroke:none" d="M 7.65625 -13.328125 C 9.039062 -13.328125 10.21875 -12.988281 11.1875 -12.3125 C 12.15625 -11.644531 12.832031 -10.785156 13.21875 -9.734375 L 13.21875 -13.15625 L 14.3125 -13.15625 L 14.3125 0.40625 C 14.3125 1.625 14.046875 2.6875 13.515625 3.59375 C 12.984375 4.507812 12.265625 5.210938 11.359375 5.703125 C 10.453125 6.191406 9.441406 6.4375 8.328125 6.4375 C 6.679688 6.4375 5.316406 6.039062 4.234375 5.25 C 3.148438 4.457031 2.441406 3.394531 2.109375 2.0625 L 3.203125 2.0625 C 3.523438 3.113281 4.128906 3.945312 5.015625 4.5625 C 5.898438 5.1875 7.003906 5.5 8.328125 5.5 C 9.253906 5.5 10.085938 5.289062 10.828125 4.875 C 11.566406 4.46875 12.148438 3.878906 12.578125 3.109375 C 13.003906 2.347656 13.21875 1.445312 13.21875 0.40625 L 13.21875 -3.4375 C 12.832031 -2.382812 12.148438 -1.515625 11.171875 -0.828125 C 10.203125 -0.148438 9.03125 0.1875 7.65625 0.1875 C 6.425781 0.1875 5.332031 -0.0859375 4.375 -0.640625 C 3.414062 -1.203125 2.664062 -1.992188 2.125 -3.015625 C 1.582031 -4.035156 1.3125 -5.226562 1.3125 -6.59375 C 1.3125 -7.945312 1.582031 -9.128906 2.125 -10.140625 C 2.664062 -11.160156 3.414062 -11.945312 4.375 -12.5 C 5.332031 -13.050781 6.425781 -13.328125 7.65625 -13.328125 Z M 13.21875 -6.59375 C 13.21875 -7.738281 12.976562 -8.75 12.5 -9.625 C 12.03125 -10.507812 11.382812 -11.1875 10.5625 -11.65625 C 9.738281 -12.132812 8.816406 -12.375 7.796875 -12.375 C 6.734375 -12.375 5.796875 -12.144531 4.984375 -11.6875 C 4.179688 -11.226562 3.550781 -10.5625 3.09375 -9.6875 C 2.644531 -8.8125 2.421875 -7.78125 2.421875 -6.59375 C 2.421875 -5.394531 2.644531 -4.359375 3.09375 -3.484375 C 3.550781 -2.617188 4.1875 -1.953125 5 -1.484375 C 5.8125 -1.015625 6.742188 -0.78125 7.796875 -0.78125 C 8.816406 -0.78125 9.738281 -1.015625 10.5625 -1.484375 C 11.394531 -1.960938 12.046875 -2.640625 12.515625 -3.515625 C 12.984375 -4.398438 13.21875 -5.425781 13.21875 -6.59375 Z M 13.21875 -6.59375 "/></g></g><g style="fill:#ffffff;fill-opacity:1;"><g transform="translate(152.730892, 241.881697)"><path style="stroke:none" d="M 7.921875 -13.421875 C 9.484375 -13.421875 10.753906 -12.9375 11.734375 -11.96875 C 12.722656 -11.007812 13.21875 -9.585938 13.21875 -7.703125 L 13.21875 0 L 12.15625 0 L 12.15625 -7.625 C 12.15625 -9.195312 11.757812 -10.394531 10.96875 -11.21875 C 10.175781 -12.050781 9.101562 -12.46875 7.75 -12.46875 C 6.332031 -12.46875 5.195312 -12.015625 4.34375 -11.109375 C 3.5 -10.210938 3.078125 -8.875 3.078125 -7.09375 L 3.078125 0 L 1.984375 0 L 1.984375 -13.15625 L 3.078125 -13.15625 L 3.078125 -10.359375 C 3.453125 -11.347656 4.066406 -12.101562 4.921875 -12.625 C 5.785156 -13.15625 6.785156 -13.421875 7.921875 -13.421875 Z M 7.921875 -13.421875 "/></g></g><g style="fill:#ffffff;fill-opacity:1;"><g transform="translate(166.901134, 241.881697)"><path style="stroke:none" d=""/></g></g><g style="fill:#ffffff;fill-opacity:1;"><g transform="translate(172.811321, 241.881697)"><path style="stroke:none" d="M 6.90625 0.171875 C 5.800781 0.171875 4.835938 -0.0195312 4.015625 -0.40625 C 3.191406 -0.800781 2.550781 -1.328125 2.09375 -1.984375 C 1.632812 -2.648438 1.375 -3.382812 1.3125 -4.1875 L 2.453125 -4.1875 C 2.578125 -3.300781 2.988281 -2.507812 3.6875 -1.8125 C 4.394531 -1.125 5.46875 -0.78125 6.90625 -0.78125 C 7.738281 -0.78125 8.46875 -0.929688 9.09375 -1.234375 C 9.71875 -1.546875 10.195312 -1.96875 10.53125 -2.5 C 10.875 -3.03125 11.046875 -3.617188 11.046875 -4.265625 C 11.046875 -5.085938 10.847656 -5.738281 10.453125 -6.21875 C 10.054688 -6.707031 9.5625 -7.070312 8.96875 -7.3125 C 8.382812 -7.550781 7.59375 -7.8125 6.59375 -8.09375 C 5.488281 -8.382812 4.601562 -8.671875 3.9375 -8.953125 C 3.269531 -9.242188 2.703125 -9.691406 2.234375 -10.296875 C 1.773438 -10.910156 1.546875 -11.738281 1.546875 -12.78125 C 1.546875 -13.59375 1.757812 -14.332031 2.1875 -15 C 2.613281 -15.675781 3.222656 -16.207031 4.015625 -16.59375 C 4.804688 -16.976562 5.71875 -17.171875 6.75 -17.171875 C 8.257812 -17.171875 9.472656 -16.796875 10.390625 -16.046875 C 11.304688 -15.304688 11.851562 -14.398438 12.03125 -13.328125 L 10.875 -13.328125 C 10.78125 -13.753906 10.566406 -14.191406 10.234375 -14.640625 C 9.898438 -15.097656 9.429688 -15.476562 8.828125 -15.78125 C 8.222656 -16.082031 7.5 -16.234375 6.65625 -16.234375 C 5.53125 -16.234375 4.578125 -15.921875 3.796875 -15.296875 C 3.023438 -14.671875 2.640625 -13.84375 2.640625 -12.8125 C 2.640625 -11.988281 2.835938 -11.328125 3.234375 -10.828125 C 3.640625 -10.335938 4.140625 -9.96875 4.734375 -9.71875 C 5.328125 -9.46875 6.125 -9.21875 7.125 -8.96875 C 8.238281 -8.65625 9.117188 -8.359375 9.765625 -8.078125 C 10.421875 -7.796875 10.976562 -7.351562 11.4375 -6.75 C 11.90625 -6.144531 12.140625 -5.320312 12.140625 -4.28125 C 12.140625 -3.53125 11.9375 -2.8125 11.53125 -2.125 C 11.125 -1.445312 10.53125 -0.894531 9.75 -0.46875 C 8.96875 -0.0390625 8.019531 0.171875 6.90625 0.171875 Z M 6.90625 0.171875 "/></g></g><g style="fill:#ffffff;fill-opacity:1;"><g transform="translate(185.310164, 241.881697)"><path style="stroke:none" d="M 3.609375 -12.203125 L 3.609375 -3.515625 C 3.609375 -2.546875 3.785156 -1.878906 4.140625 -1.515625 C 4.492188 -1.148438 5.125 -0.96875 6.03125 -0.96875 L 7.515625 -0.96875 L 7.515625 0 L 5.859375 0 C 4.710938 0 3.867188 -0.269531 3.328125 -0.8125 C 2.785156 -1.351562 2.515625 -2.253906 2.515625 -3.515625 L 2.515625 -12.203125 L 0.53125 -12.203125 L 0.53125 -13.15625 L 2.515625 -13.15625 L 2.515625 -16.5 L 3.609375 -16.5 L 3.609375 -13.15625 L 7.515625 -13.15625 L 7.515625 -12.203125 Z M 3.609375 -12.203125 "/></g></g><g style="fill:#ffffff;fill-opacity:1;"><g transform="translate(192.794846, 241.881697)"><path style="stroke:none" d="M 3.078125 -10.4375 C 3.398438 -11.40625 3.972656 -12.144531 4.796875 -12.65625 C 5.617188 -13.164062 6.664062 -13.421875 7.9375 -13.421875 L 7.9375 -12.28125 L 7.578125 -12.28125 C 6.285156 -12.28125 5.210938 -11.910156 4.359375 -11.171875 C 3.503906 -10.441406 3.078125 -9.242188 3.078125 -7.578125 L 3.078125 0 L 1.984375 0 L 1.984375 -13.15625 L 3.078125 -13.15625 Z M 3.078125 -10.4375 "/></g></g><g style="fill:#ffffff;fill-opacity:1;"><g transform="translate(200.352193, 241.881697)"><path style="stroke:none" d="M 1.3125 -6.59375 C 1.3125 -7.945312 1.582031 -9.128906 2.125 -10.140625 C 2.664062 -11.160156 3.414062 -11.945312 4.375 -12.5 C 5.332031 -13.050781 6.425781 -13.328125 7.65625 -13.328125 C 9.039062 -13.328125 10.21875 -12.984375 11.1875 -12.296875 C 12.15625 -11.617188 12.832031 -10.757812 13.21875 -9.71875 L 13.21875 -13.15625 L 14.3125 -13.15625 L 14.3125 0 L 13.21875 0 L 13.21875 -3.46875 C 12.832031 -2.394531 12.148438 -1.515625 11.171875 -0.828125 C 10.203125 -0.148438 9.03125 0.1875 7.65625 0.1875 C 6.425781 0.1875 5.332031 -0.0859375 4.375 -0.640625 C 3.414062 -1.203125 2.664062 -1.992188 2.125 -3.015625 C 1.582031 -4.035156 1.3125 -5.226562 1.3125 -6.59375 Z M 13.21875 -6.59375 C 13.21875 -7.738281 12.976562 -8.75 12.5 -9.625 C 12.03125 -10.507812 11.382812 -11.1875 10.5625 -11.65625 C 9.738281 -12.132812 8.816406 -12.375 7.796875 -12.375 C 6.734375 -12.375 5.796875 -12.144531 4.984375 -11.6875 C 4.179688 -11.226562 3.550781 -10.5625 3.09375 -9.6875 C 2.644531 -8.8125 2.421875 -7.78125 2.421875 -6.59375 C 2.421875 -5.394531 2.644531 -4.359375 3.09375 -3.484375 C 3.550781 -2.617188 4.1875 -1.953125 5 -1.484375 C 5.8125 -1.015625 6.742188 -0.78125 7.796875 -0.78125 C 8.816406 -0.78125 9.738281 -1.015625 10.5625 -1.484375 C 11.394531 -1.960938 12.046875 -2.640625 12.515625 -3.515625 C 12.984375 -4.398438 13.21875 -5.425781 13.21875 -6.59375 Z M 13.21875 -6.59375 "/></g></g><g style="fill:#ffffff;fill-opacity:1;"><g transform="translate(215.733587, 241.881697)"><path style="stroke:none" d="M 3.609375 -12.203125 L 3.609375 -3.515625 C 3.609375 -2.546875 3.785156 -1.878906 4.140625 -1.515625 C 4.492188 -1.148438 5.125 -0.96875 6.03125 -0.96875 L 7.515625 -0.96875 L 7.515625 0 L 5.859375 0 C 4.710938 0 3.867188 -0.269531 3.328125 -0.8125 C 2.785156 -1.351562 2.515625 -2.253906 2.515625 -3.515625 L 2.515625 -12.203125 L 0.53125 -12.203125 L 0.53125 -13.15625 L 2.515625 -13.15625 L 2.515625 -16.5 L 3.609375 -16.5 L 3.609375 -13.15625 L 7.515625 -13.15625 L 7.515625 -12.203125 Z M 3.609375 -12.203125 "/></g></g><g style="fill:#ffffff;fill-opacity:1;"><g transform="translate(223.218269, 241.881697)"><path style="stroke:none" d="M 13.828125 -7.453125 C 13.828125 -6.878906 13.8125 -6.445312 13.78125 -6.15625 L 2.421875 -6.15625 C 2.453125 -4.976562 2.707031 -3.984375 3.1875 -3.171875 C 3.675781 -2.367188 4.316406 -1.765625 5.109375 -1.359375 C 5.898438 -0.953125 6.765625 -0.75 7.703125 -0.75 C 8.992188 -0.75 10.070312 -1.066406 10.9375 -1.703125 C 11.8125 -2.347656 12.363281 -3.21875 12.59375 -4.3125 L 13.734375 -4.3125 C 13.472656 -2.96875 12.804688 -1.878906 11.734375 -1.046875 C 10.671875 -0.222656 9.328125 0.1875 7.703125 0.1875 C 6.472656 0.1875 5.375 -0.0820312 4.40625 -0.625 C 3.4375 -1.175781 2.675781 -1.960938 2.125 -2.984375 C 1.582031 -4.015625 1.3125 -5.21875 1.3125 -6.59375 C 1.3125 -7.957031 1.582031 -9.148438 2.125 -10.171875 C 2.664062 -11.191406 3.421875 -11.972656 4.390625 -12.515625 C 5.359375 -13.054688 6.460938 -13.328125 7.703125 -13.328125 C 8.960938 -13.328125 10.054688 -13.054688 10.984375 -12.515625 C 11.910156 -11.972656 12.613281 -11.253906 13.09375 -10.359375 C 13.582031 -9.460938 13.828125 -8.492188 13.828125 -7.453125 Z M 12.734375 -7.046875 C 12.785156 -8.210938 12.582031 -9.195312 12.125 -10 C 11.664062 -10.8125 11.039062 -11.414062 10.25 -11.8125 C 9.457031 -12.207031 8.597656 -12.40625 7.671875 -12.40625 C 6.753906 -12.40625 5.90625 -12.207031 5.125 -11.8125 C 4.34375 -11.414062 3.703125 -10.8125 3.203125 -10 C 2.710938 -9.195312 2.453125 -8.210938 2.421875 -7.046875 Z M 12.734375 -7.046875 "/></g></g><g style="fill:#ffffff;fill-opacity:1;"><g transform="translate(237.436954, 241.881697)"><path style="stroke:none" d="M 7.65625 -13.328125 C 9.039062 -13.328125 10.21875 -12.988281 11.1875 -12.3125 C 12.15625 -11.644531 12.832031 -10.785156 13.21875 -9.734375 L 13.21875 -13.15625 L 14.3125 -13.15625 L 14.3125 0.40625 C 14.3125 1.625 14.046875 2.6875 13.515625 3.59375 C 12.984375 4.507812 12.265625 5.210938 11.359375 5.703125 C 10.453125 6.191406 9.441406 6.4375 8.328125 6.4375 C 6.679688 6.4375 5.316406 6.039062 4.234375 5.25 C 3.148438 4.457031 2.441406 3.394531 2.109375 2.0625 L 3.203125 2.0625 C 3.523438 3.113281 4.128906 3.945312 5.015625 4.5625 C 5.898438 5.1875 7.003906 5.5 8.328125 5.5 C 9.253906 5.5 10.085938 5.289062 10.828125 4.875 C 11.566406 4.46875 12.148438 3.878906 12.578125 3.109375 C 13.003906 2.347656 13.21875 1.445312 13.21875 0.40625 L 13.21875 -3.4375 C 12.832031 -2.382812 12.148438 -1.515625 11.171875 -0.828125 C 10.203125 -0.148438 9.03125 0.1875 7.65625 0.1875 C 6.425781 0.1875 5.332031 -0.0859375 4.375 -0.640625 C 3.414062 -1.203125 2.664062 -1.992188 2.125 -3.015625 C 1.582031 -4.035156 1.3125 -5.226562 1.3125 -6.59375 C 1.3125 -7.945312 1.582031 -9.128906 2.125 -10.140625 C 2.664062 -11.160156 3.414062 -11.945312 4.375 -12.5 C 5.332031 -13.050781 6.425781 -13.328125 7.65625 -13.328125 Z M 13.21875 -6.59375 C 13.21875 -7.738281 12.976562 -8.75 12.5 -9.625 C 12.03125 -10.507812 11.382812 -11.1875 10.5625 -11.65625 C 9.738281 -12.132812 8.816406 -12.375 7.796875 -12.375 C 6.734375 -12.375 5.796875 -12.144531 4.984375 -11.6875 C 4.179688 -11.226562 3.550781 -10.5625 3.09375 -9.6875 C 2.644531 -8.8125 2.421875 -7.78125 2.421875 -6.59375 C 2.421875 -5.394531 2.644531 -4.359375 3.09375 -3.484375 C 3.550781 -2.617188 4.1875 -1.953125 5 -1.484375 C 5.8125 -1.015625 6.742188 -0.78125 7.796875 -0.78125 C 8.816406 -0.78125 9.738281 -1.015625 10.5625 -1.484375 C 11.394531 -1.960938 12.046875 -2.640625 12.515625 -3.515625 C 12.984375 -4.398438 13.21875 -5.425781 13.21875 -6.59375 Z M 13.21875 -6.59375 "/></g></g><g style="fill:#ffffff;fill-opacity:1;"><g transform="translate(252.818349, 241.881697)"><path style="stroke:none" d="M 2.546875 -16.078125 C 2.285156 -16.078125 2.066406 -16.160156 1.890625 -16.328125 C 1.710938 -16.503906 1.625 -16.738281 1.625 -17.03125 C 1.625 -17.300781 1.710938 -17.523438 1.890625 -17.703125 C 2.066406 -17.878906 2.285156 -17.96875 2.546875 -17.96875 C 2.804688 -17.96875 3.023438 -17.878906 3.203125 -17.703125 C 3.378906 -17.523438 3.46875 -17.300781 3.46875 -17.03125 C 3.46875 -16.738281 3.378906 -16.503906 3.203125 -16.328125 C 3.023438 -16.160156 2.804688 -16.078125 2.546875 -16.078125 Z M 3.078125 -13.15625 L 3.078125 0 L 1.984375 0 L 1.984375 -13.15625 Z M 3.078125 -13.15625 "/></g></g><g style="fill:#ffffff;fill-opacity:1;"><g transform="translate(256.984473, 241.881697)"><path style="stroke:none" d="M 13.828125 -7.453125 C 13.828125 -6.878906 13.8125 -6.445312 13.78125 -6.15625 L 2.421875 -6.15625 C 2.453125 -4.976562 2.707031 -3.984375 3.1875 -3.171875 C 3.675781 -2.367188 4.316406 -1.765625 5.109375 -1.359375 C 5.898438 -0.953125 6.765625 -0.75 7.703125 -0.75 C 8.992188 -0.75 10.070312 -1.066406 10.9375 -1.703125 C 11.8125 -2.347656 12.363281 -3.21875 12.59375 -4.3125 L 13.734375 -4.3125 C 13.472656 -2.96875 12.804688 -1.878906 11.734375 -1.046875 C 10.671875 -0.222656 9.328125 0.1875 7.703125 0.1875 C 6.472656 0.1875 5.375 -0.0820312 4.40625 -0.625 C 3.4375 -1.175781 2.675781 -1.960938 2.125 -2.984375 C 1.582031 -4.015625 1.3125 -5.21875 1.3125 -6.59375 C 1.3125 -7.957031 1.582031 -9.148438 2.125 -10.171875 C 2.664062 -11.191406 3.421875 -11.972656 4.390625 -12.515625 C 5.359375 -13.054688 6.460938 -13.328125 7.703125 -13.328125 C 8.960938 -13.328125 10.054688 -13.054688 10.984375 -12.515625 C 11.910156 -11.972656 12.613281 -11.253906 13.09375 -10.359375 C 13.582031 -9.460938 13.828125 -8.492188 13.828125 -7.453125 Z M 12.734375 -7.046875 C 12.785156 -8.210938 12.582031 -9.195312 12.125 -10 C 11.664062 -10.8125 11.039062 -11.414062 10.25 -11.8125 C 9.457031 -12.207031 8.597656 -12.40625 7.671875 -12.40625 C 6.753906 -12.40625 5.90625 -12.207031 5.125 -11.8125 C 4.34375 -11.414062 3.703125 -10.8125 3.203125 -10 C 2.710938 -9.195312 2.453125 -8.210938 2.421875 -7.046875 Z M 12.734375 -7.046875 "/></g></g><g style="fill:#ffffff;fill-opacity:1;"><g transform="translate(271.203158, 241.881697)"><path style="stroke:none" d="M 6.375 0.1875 C 4.90625 0.1875 3.703125 -0.132812 2.765625 -0.78125 C 1.835938 -1.425781 1.320312 -2.34375 1.21875 -3.53125 L 2.328125 -3.53125 C 2.410156 -2.675781 2.800781 -2 3.5 -1.5 C 4.195312 -1 5.15625 -0.75 6.375 -0.75 C 7.375 -0.75 8.164062 -1.003906 8.75 -1.515625 C 9.34375 -2.023438 9.640625 -2.648438 9.640625 -3.390625 C 9.640625 -3.910156 9.476562 -4.332031 9.15625 -4.65625 C 8.84375 -4.988281 8.453125 -5.242188 7.984375 -5.421875 C 7.523438 -5.597656 6.890625 -5.789062 6.078125 -6 C 5.109375 -6.257812 4.320312 -6.515625 3.71875 -6.765625 C 3.125 -7.015625 2.617188 -7.390625 2.203125 -7.890625 C 1.785156 -8.390625 1.578125 -9.0625 1.578125 -9.90625 C 1.578125 -10.519531 1.757812 -11.085938 2.125 -11.609375 C 2.5 -12.140625 3.015625 -12.554688 3.671875 -12.859375 C 4.335938 -13.171875 5.09375 -13.328125 5.9375 -13.328125 C 7.3125 -13.328125 8.421875 -12.984375 9.265625 -12.296875 C 10.109375 -11.609375 10.5625 -10.660156 10.625 -9.453125 L 9.546875 -9.453125 C 9.492188 -10.316406 9.148438 -11.023438 8.515625 -11.578125 C 7.890625 -12.128906 7.019531 -12.40625 5.90625 -12.40625 C 4.96875 -12.40625 4.191406 -12.160156 3.578125 -11.671875 C 2.972656 -11.191406 2.671875 -10.601562 2.671875 -9.90625 C 2.671875 -9.289062 2.84375 -8.789062 3.1875 -8.40625 C 3.53125 -8.03125 3.957031 -7.738281 4.46875 -7.53125 C 4.976562 -7.332031 5.648438 -7.125 6.484375 -6.90625 C 7.410156 -6.664062 8.148438 -6.425781 8.703125 -6.1875 C 9.265625 -5.957031 9.738281 -5.617188 10.125 -5.171875 C 10.507812 -4.722656 10.703125 -4.128906 10.703125 -3.390625 C 10.703125 -2.710938 10.515625 -2.097656 10.140625 -1.546875 C 9.773438 -1.003906 9.257812 -0.578125 8.59375 -0.265625 C 7.9375 0.0351562 7.195312 0.1875 6.375 0.1875 Z M 6.375 0.1875 "/></g></g></g></svg>